<svg width="22" height="22" viewBox="0 0 22 22" fill="none" xmlns="http://www.w3.org/2000/svg">
<rect width="22" height="22" rx="4" fill="#DAE9FE"/>
<path d="M10.2416 11.7578H6.9561C6.74329 11.7578 6.5637 11.6846 6.41732 11.5382C6.27094 11.3918 6.19775 11.2122 6.19775 10.9994C6.19775 10.7866 6.27094 10.6071 6.41732 10.4607C6.5637 10.3143 6.74329 10.2411 6.9561 10.2411H10.2416V6.95562C10.2416 6.7428 10.3148 6.56321 10.4612 6.41683C10.6075 6.27045 10.7871 6.19727 10.9999 6.19727C11.2127 6.19727 11.3923 6.27045 11.5387 6.41683C11.6851 6.56321 11.7583 6.7428 11.7583 6.95562V10.2411H15.0438C15.2566 10.2411 15.4362 10.3143 15.5826 10.4607C15.7289 10.6071 15.8021 10.7866 15.8021 10.9994C15.8021 11.2122 15.7289 11.3918 15.5826 11.5382C15.4362 11.6846 15.2566 11.7578 15.0438 11.7578H11.7583V15.0433C11.7583 15.2561 11.6851 15.4357 11.5387 15.5821C11.3923 15.7284 11.2127 15.8016 10.9999 15.8016C10.7871 15.8016 10.6075 15.7284 10.4612 15.5821C10.3148 15.4357 10.2416 15.2561 10.2416 15.0433V11.7578Z" fill="#3388FF"/>
</svg>
