<svg width="8" height="14" viewBox="0 0 8 14" fill="none" xmlns="http://www.w3.org/2000/svg">
<path d="M2.1126 6.99937L7.1344 12.0212C7.26687 12.1536 7.33141 12.3113 7.328 12.4942C7.32457 12.6771 7.25662 12.8348 7.12415 12.9673C6.99167 13.0998 6.83398 13.166 6.65108 13.166C6.46818 13.166 6.31049 13.0998 6.17801 12.9673L1.07416 7.8532C0.953652 7.73269 0.864336 7.59765 0.806213 7.44808C0.748102 7.2985 0.719047 7.14893 0.719047 6.99937C0.719047 6.8498 0.748102 6.70023 0.806213 6.55065C0.864336 6.40108 0.953652 6.26604 1.07416 6.14553L6.18826 1.03143C6.32074 0.898955 6.47673 0.834421 6.65621 0.837832C6.83569 0.841254 6.99167 0.909204 7.12415 1.04168C7.25663 1.17416 7.32286 1.33185 7.32286 1.51475C7.32286 1.69765 7.25663 1.85534 7.12415 1.98782L2.1126 6.99937Z" fill="#D9D9D9"/>
</svg>
