<svg width="26" height="26" viewBox="0 0 26 26" fill="none" xmlns="http://www.w3.org/2000/svg">
<path d="M12.4802 15.3545L9.06643 11.9408C9.01935 11.8937 8.98226 11.8411 8.95518 11.7831C8.92809 11.725 8.91455 11.6628 8.91455 11.5964C8.91455 11.4636 8.95944 11.3483 9.04921 11.2504C9.13896 11.1525 9.25727 11.1035 9.40414 11.1035H16.5957C16.7426 11.1035 16.8609 11.1529 16.9507 11.2518C17.0404 11.3507 17.0853 11.466 17.0853 11.5978C17.0853 11.6308 17.0346 11.7452 16.9332 11.941L13.5197 15.3545C13.4412 15.433 13.3601 15.4903 13.2764 15.5264C13.1926 15.5625 13.1005 15.5806 12.9999 15.5806C12.8994 15.5806 12.8073 15.5625 12.7235 15.5264C12.6397 15.4903 12.5586 15.433 12.4802 15.3545Z" fill="#333236"/>
</svg>
