<svg width="8" height="14" viewBox="0 0 8 14" fill="none" xmlns="http://www.w3.org/2000/svg">
<path d="M5.8874 7.00063L0.865603 1.97883C0.733126 1.84636 0.668592 1.68867 0.672003 1.50577C0.675426 1.32286 0.743375 1.16517 0.875853 1.0327C1.00833 0.900224 1.16602 0.833984 1.34892 0.833984C1.53182 0.833984 1.68951 0.900224 1.82199 1.0327L6.92584 6.1468C7.04635 6.26731 7.13566 6.40235 7.19379 6.55192C7.2519 6.7015 7.28095 6.85107 7.28095 7.00063C7.28095 7.1502 7.2519 7.29977 7.19379 7.44935C7.13566 7.59892 7.04635 7.73396 6.92584 7.85447L1.81174 12.9686C1.67926 13.101 1.52328 13.1656 1.34379 13.1622C1.16431 13.1587 1.00833 13.0908 0.875853 12.9583C0.743375 12.8258 0.677136 12.6682 0.677136 12.4853C0.677136 12.3024 0.743375 12.1447 0.875853 12.0122L5.8874 7.00063Z" fill="#D9D9D9"/>
</svg>
