<svg width="22" height="22" viewBox="0 0 22 22" fill="none" xmlns="http://www.w3.org/2000/svg">
<path d="M4.86507 20.5224C4.40203 20.5224 4.01009 20.362 3.68926 20.0411C3.36842 19.7203 3.20801 19.3284 3.20801 18.8653V6.59615C3.20801 6.13311 3.36842 5.74118 3.68926 5.42034C4.01009 5.09951 4.40203 4.93909 4.86507 4.93909H6.13431V3.7051C6.13431 3.50415 6.20159 3.33639 6.33616 3.20183C6.47071 3.06728 6.63847 3 6.83943 3C7.04038 3 7.20814 3.06728 7.3427 3.20183C7.47725 3.33639 7.54453 3.50415 7.54453 3.7051V4.93909H14.49V3.68748C14.49 3.4924 14.5558 3.32904 14.6874 3.19743C14.8191 3.06581 14.9824 3 15.1775 3C15.3726 3 15.5359 3.06581 15.6675 3.19743C15.7992 3.32904 15.865 3.4924 15.865 3.68748V4.93909H17.1342C17.5973 4.93909 17.9892 5.09951 18.31 5.42034C18.6309 5.74118 18.7913 6.13311 18.7913 6.59615V18.8653C18.7913 19.3284 18.6309 19.7203 18.31 20.0411C17.9892 20.362 17.5973 20.5224 17.1342 20.5224H4.86507ZM4.86507 19.1474H17.1342C17.2048 19.1474 17.2694 19.118 17.3282 19.0593C17.3869 19.0005 17.4163 18.9358 17.4163 18.8653V10.2628H4.58298V18.8653C4.58298 18.9358 4.61236 19.0005 4.67112 19.0593C4.7299 19.118 4.79454 19.1474 4.86507 19.1474ZM4.58298 8.88784H17.4163V6.59615C17.4163 6.52563 17.3869 6.46098 17.3282 6.40221C17.2694 6.34345 17.2048 6.31407 17.1342 6.31407H4.86507C4.79454 6.31407 4.7299 6.34345 4.67112 6.40221C4.61236 6.46098 4.58298 6.52563 4.58298 6.59615V8.88784Z" fill="#333236"/>
</svg>
