<svg version="1.1" xmlns="http://www.w3.org/2000/svg" xmlns:xlink="http://www.w3.org/1999/xlink" width="32" height="32" viewBox="0,0,256,256"><g fill="#ef4444" fill-rule="nonzero" stroke="none" stroke-width="1" stroke-linecap="butt" stroke-linejoin="miter" stroke-miterlimit="10" stroke-dasharray="" stroke-dashoffset="0" font-family="none" font-weight="none" font-size="none" text-anchor="none" style="mix-blend-mode: normal"><g transform="translate(0.00032,0.00032) scale(8,8)"><path d="M16,17.4051l-6.76415,6.7641c-0.1846,0.1846 -0.41665,0.279 -0.69613,0.2833c-0.27947,0.0043 -0.51578,-0.0901 -0.70894,-0.2833c-0.19318,-0.1932 -0.28976,-0.4274 -0.28976,-0.7026c0,-0.2752 0.09658,-0.5093 0.28976,-0.7025l6.76412,-6.7641l-6.76412,-6.76415c-0.18462,-0.1846 -0.27906,-0.41665 -0.28333,-0.69613c-0.00429,-0.27947 0.09015,-0.51578 0.28333,-0.70894c0.19316,-0.19318 0.42734,-0.28976 0.70254,-0.28976c0.2752,0 0.50937,0.09658 0.70253,0.28976l6.76415,6.76412l6.7641,-6.76412c0.1846,-0.18462 0.4167,-0.27906 0.6961,-0.28333c0.2795,-0.00429 0.5158,0.09015 0.709,0.28333c0.1932,0.19316 0.2897,0.42734 0.2897,0.70254c0,0.2752 -0.0965,0.50937 -0.2897,0.70253l-6.7641,6.76415l6.7641,6.7641c0.1846,0.1846 0.279,0.4167 0.2833,0.6961c0.0043,0.2795 -0.0901,0.5158 -0.2833,0.709c-0.1932,0.1932 -0.4274,0.2897 -0.7026,0.2897c-0.2752,0 -0.5093,-0.0965 -0.7025,-0.2897z"></path></g></g></svg>