<svg width="40" height="40" viewBox="0 0 40 40" fill="none" xmlns="http://www.w3.org/2000/svg">
<path d="M0.5 0.5H36C37.933 0.5 39.5 2.067 39.5 4V36C39.5 37.933 37.933 39.5 36 39.5H0.5V0.5Z" fill="white" stroke="#D9D9D9"/>
<path d="M21.8872 20.0006L16.8654 14.9788C16.7329 14.8464 16.6683 14.6887 16.6718 14.5058C16.6752 14.3229 16.7431 14.1652 16.8756 14.0327C17.0081 13.9002 17.1658 13.834 17.3487 13.834C17.5316 13.834 17.6893 13.9002 17.8217 14.0327L22.9256 19.1468C23.0461 19.2673 23.1354 19.4024 23.1935 19.5519C23.2517 19.7015 23.2807 19.8511 23.2807 20.0006C23.2807 20.1502 23.2517 20.2998 23.1935 20.4494C23.1354 20.5989 23.0461 20.734 22.9256 20.8545L17.8115 25.9686C17.679 26.101 17.523 26.1656 17.3435 26.1622C17.1641 26.1587 17.0081 26.0908 16.8756 25.9583C16.7431 25.8258 16.6769 25.6682 16.6769 25.4853C16.6769 25.3024 16.7431 25.1447 16.8756 25.0122L21.8872 20.0006Z" fill="#333236"/>
</svg>
