<svg width="40" height="40" viewBox="0 0 40 40" fill="none" xmlns="http://www.w3.org/2000/svg">
<path d="M0.5 4C0.5 2.067 2.067 0.5 4 0.5H39.5V39.5H4C2.067 39.5 0.5 37.933 0.5 36V4Z" fill="white" stroke="#D9D9D9"/>
<path d="M18.1128 19.9994L23.1346 25.0212C23.2671 25.1536 23.3317 25.3113 23.3282 25.4942C23.3248 25.6771 23.2569 25.8348 23.1244 25.9673C22.9919 26.0998 22.8342 26.166 22.6513 26.166C22.4684 26.166 22.3107 26.0998 22.1783 25.9673L17.0744 20.8532C16.9539 20.7327 16.8646 20.5976 16.8065 20.4481C16.7483 20.2985 16.7193 20.1489 16.7193 19.9994C16.7193 19.8498 16.7483 19.7002 16.8065 19.5506C16.8646 19.4011 16.9539 19.266 17.0744 19.1455L22.1885 14.0314C22.321 13.899 22.477 13.8344 22.6565 13.8378C22.8359 13.8413 22.9919 13.9092 23.1244 14.0417C23.2569 14.1742 23.3231 14.3318 23.3231 14.5147C23.3231 14.6976 23.2569 14.8553 23.1244 14.9878L18.1128 19.9994Z" fill="#333236"/>
</svg>
