<svg width="40" height="40" viewBox="0 0 40 40" fill="none" xmlns="http://www.w3.org/2000/svg">
<path d="M0.5 4C0.5 2.067 2.067 0.5 4 0.5H39.5V39.5H4C2.067 39.5 0.5 37.933 0.5 36V4Z" fill="white" stroke="#D9D9D9"/>
<path d="M18.1126 20.0003L23.1344 25.0221C23.2669 25.1546 23.3314 25.3123 23.328 25.4952C23.3246 25.6781 23.2566 25.8358 23.1241 25.9683C22.9917 26.1008 22.834 26.167 22.6511 26.167C22.4682 26.167 22.3105 26.1008 22.178 25.9683L17.0742 20.8542C16.9537 20.7337 16.8643 20.5986 16.8062 20.4491C16.7481 20.2995 16.719 20.1499 16.719 20.0003C16.719 19.8508 16.7481 19.7012 16.8062 19.5516C16.8643 19.4021 16.9537 19.267 17.0742 19.1465L22.1883 14.0324C22.3207 13.8999 22.4767 13.8354 22.6562 13.8388C22.8357 13.8422 22.9917 13.9102 23.1241 14.0427C23.2566 14.1751 23.3229 14.3328 23.3229 14.5157C23.3229 14.6986 23.2566 14.8563 23.1241 14.9888L18.1126 20.0003Z" fill="#D9D9D9"/>
</svg>
