<svg width="40" height="40" viewBox="0 0 40 40" fill="none" xmlns="http://www.w3.org/2000/svg">
<path d="M0.5 0.5H36C37.933 0.5 39.5 2.067 39.5 4V36C39.5 37.933 37.933 39.5 36 39.5H0.5V0.5Z" fill="white" stroke="#D9D9D9"/>
<path d="M21.8874 19.9997L16.8656 14.9779C16.7331 14.8454 16.6686 14.6877 16.672 14.5048C16.6754 14.3219 16.7434 14.1642 16.8759 14.0317C17.0083 13.8992 17.166 13.833 17.3489 13.833C17.5318 13.833 17.6895 13.8992 17.822 14.0317L22.9258 19.1458C23.0463 19.2663 23.1357 19.4014 23.1938 19.5509C23.2519 19.7005 23.281 19.8501 23.281 19.9997C23.281 20.1492 23.2519 20.2988 23.1938 20.4484C23.1357 20.5979 23.0463 20.733 22.9258 20.8535L17.8117 25.9676C17.6793 26.1001 17.5233 26.1646 17.3438 26.1612C17.1643 26.1578 17.0083 26.0898 16.8759 25.9573C16.7434 25.8249 16.6771 25.6672 16.6771 25.4843C16.6771 25.3014 16.7434 25.1437 16.8759 25.0112L21.8874 19.9997Z" fill="#D9D9D9"/>
</svg>
