<svg width="25" height="24" viewBox="0 0 25 24" fill="none" xmlns="http://www.w3.org/2000/svg">
<path d="M10.109 15.6155C8.40132 15.6155 6.95518 15.0232 5.77058 13.8386C4.58596 12.6539 3.99365 11.2078 3.99365 9.50012C3.99365 7.79243 4.58596 6.34628 5.77058 5.16167C6.95518 3.97707 8.40132 3.38477 10.109 3.38477C11.8167 3.38477 13.2628 3.97707 14.4475 5.16167C15.6321 6.34628 16.2244 7.79243 16.2244 9.50012C16.2244 10.2142 16.1045 10.8963 15.8648 11.5463C15.625 12.1963 15.3051 12.7616 14.9051 13.2424L20.659 18.9963C20.7975 19.1347 20.8683 19.3088 20.8715 19.5184C20.8747 19.728 20.8039 19.9052 20.659 20.0501C20.5141 20.195 20.3385 20.2674 20.1321 20.2674C19.9257 20.2674 19.75 20.195 19.6052 20.0501L13.8513 14.2962C13.3513 14.7091 12.7763 15.0321 12.1263 15.2655C11.4763 15.4988 10.8039 15.6155 10.109 15.6155ZM10.109 14.1155C11.3975 14.1155 12.4888 13.6684 13.3831 12.7742C14.2773 11.8799 14.7244 10.7886 14.7244 9.50012C14.7244 8.21165 14.2773 7.1203 13.3831 6.22607C12.4888 5.33183 11.3975 4.88472 10.109 4.88472C8.82054 4.88472 7.72919 5.33183 6.83495 6.22607C5.94074 7.1203 5.49363 8.21165 5.49363 9.50012C5.49363 10.7886 5.94074 11.8799 6.83495 12.7742C7.72919 13.6684 8.82054 14.1155 10.109 14.1155Z" fill="#333236"/>
</svg>
