<svg width="20" height="20" viewBox="0 0 20 20" fill="none" xmlns="http://www.w3.org/2000/svg">
<path d="M8.7339 17.9173C8.54692 17.9173 8.38506 17.8545 8.24831 17.729C8.11156 17.6034 8.0293 17.4472 8.00152 17.2602L7.75954 15.3788C7.53625 15.304 7.30735 15.1993 7.07283 15.0647C6.83832 14.9301 6.62865 14.7859 6.44381 14.632L4.70344 15.366C4.52502 15.444 4.34794 15.453 4.17219 15.3932C3.99644 15.3334 3.85835 15.2212 3.75792 15.0567L2.50475 12.874C2.40965 12.7095 2.38027 12.5338 2.4166 12.3468C2.45292 12.1598 2.5464 12.0092 2.69704 11.8949L4.20346 10.7554C4.18422 10.6315 4.1706 10.507 4.16258 10.382C4.15457 10.257 4.15056 10.1326 4.15056 10.0087C4.15056 9.89006 4.15457 9.76959 4.16258 9.64726C4.1706 9.52492 4.18422 9.39111 4.20346 9.24582L2.69704 8.10638C2.5464 7.99208 2.45159 7.84144 2.4126 7.65446C2.3736 7.46751 2.40432 7.29176 2.50475 7.12724L3.75792 4.96061C3.85835 4.79608 3.9951 4.6839 4.16819 4.62407C4.34126 4.56423 4.517 4.57332 4.69542 4.65132L6.43579 5.37728C6.63665 5.21808 6.85113 5.07251 7.07923 4.94057C7.30734 4.80861 7.53144 4.70257 7.75152 4.62244L8.00152 2.74105C8.0293 2.55407 8.11156 2.39782 8.24831 2.2723C8.38506 2.14676 8.54692 2.08398 8.7339 2.08398H11.2579C11.4449 2.08398 11.608 2.14676 11.7475 2.2723C11.8869 2.39782 11.9705 2.55407 11.9983 2.74105L12.2402 4.63046C12.4902 4.72127 12.7165 4.8273 12.919 4.94857C13.1214 5.06983 13.3257 5.21273 13.5319 5.37728L15.3044 4.65132C15.4828 4.57332 15.6585 4.5629 15.8316 4.62007C16.0047 4.67722 16.1414 4.78806 16.2419 4.95259L17.495 7.12724C17.5955 7.29176 17.6262 7.46751 17.5872 7.65446C17.5482 7.84144 17.4534 7.99208 17.3027 8.10638L15.7643 9.26984C15.7942 9.40446 15.8105 9.53027 15.8132 9.64726C15.8158 9.76424 15.8172 9.88203 15.8172 10.0006C15.8172 10.1139 15.8145 10.229 15.8092 10.346C15.8038 10.463 15.7846 10.5968 15.7515 10.7474L17.2739 11.8949C17.4245 12.0092 17.5194 12.1598 17.5584 12.3468C17.5974 12.5338 17.5666 12.7095 17.4662 12.874L16.213 15.0439C16.1126 15.2084 15.9724 15.3214 15.7924 15.3828C15.6123 15.4442 15.4331 15.436 15.2547 15.358L13.5319 14.624C13.3257 14.7885 13.1153 14.9341 12.9005 15.0607C12.6858 15.1873 12.4657 15.2907 12.2402 15.3708L11.9983 17.2602C11.9705 17.4472 11.8869 17.6034 11.7475 17.729C11.608 17.8545 11.4449 17.9173 11.2579 17.9173H8.7339ZM9.16656 16.6673H10.8044L11.1041 14.4349C11.5293 14.3238 11.9179 14.166 12.2699 13.9614C12.6219 13.7568 12.9614 13.4937 13.2884 13.1721L15.3589 14.0423L16.1794 12.6256L14.3717 11.2634C14.4411 11.0476 14.4884 10.8361 14.5135 10.6288C14.5386 10.4216 14.5512 10.2122 14.5512 10.0006C14.5512 9.78376 14.5386 9.57435 14.5135 9.37242C14.4884 9.17051 14.4411 8.96431 14.3717 8.75384L16.1954 7.37563L15.3749 5.95896L13.2803 6.84199C13.0015 6.5439 12.6674 6.28055 12.2779 6.05192C11.8885 5.82328 11.4945 5.66142 11.096 5.56634L10.8332 3.33396H9.17937L8.90375 5.55832C8.47853 5.65875 8.0859 5.8126 7.72585 6.01986C7.36581 6.22712 7.02233 6.49422 6.69542 6.82115L4.6249 5.95896L3.80437 7.37563L5.60406 8.71699C5.53462 8.91462 5.48601 9.12028 5.45823 9.33396C5.43045 9.54765 5.41656 9.77254 5.41656 10.0087C5.41656 10.2255 5.43045 10.4381 5.45823 10.6465C5.48601 10.8548 5.53194 11.0605 5.59604 11.2634L3.80437 12.6256L4.6249 14.0423L6.6874 13.1673C7.00363 13.4921 7.34177 13.7581 7.70181 13.9654C8.06185 14.1726 8.45983 14.3318 8.89573 14.4429L9.16656 16.6673ZM10.0095 12.5006C10.7029 12.5006 11.2929 12.2573 11.7795 11.7707C12.2662 11.284 12.5095 10.694 12.5095 10.0006C12.5095 9.30727 12.2662 8.71726 11.7795 8.23061C11.2929 7.74397 10.7029 7.50065 10.0095 7.50065C9.3076 7.50065 8.71546 7.74397 8.23308 8.23061C7.75072 8.71726 7.50954 9.30727 7.50954 10.0006C7.50954 10.694 7.75072 11.284 8.23308 11.7707C8.71546 12.2573 9.3076 12.5006 10.0095 12.5006Z" fill="#787486"/>
</svg>
