<svg width="8" height="14" viewBox="0 0 8 14" fill="none" xmlns="http://www.w3.org/2000/svg">
<path d="M2.11284 6.99937L7.13464 12.0212C7.26712 12.1536 7.33165 12.3113 7.32824 12.4942C7.32482 12.6771 7.25687 12.8348 7.12439 12.9673C6.99191 13.0998 6.83422 13.166 6.65132 13.166C6.46842 13.166 6.31074 13.0998 6.17826 12.9673L1.07441 7.8532C0.953896 7.73269 0.86458 7.59765 0.806458 7.44808C0.748346 7.2985 0.719291 7.14893 0.719291 6.99937C0.719291 6.8498 0.748346 6.70023 0.806458 6.55065C0.86458 6.40108 0.953896 6.26604 1.07441 6.14553L6.18851 1.03143C6.32099 0.898955 6.47697 0.834421 6.65646 0.837832C6.83594 0.841254 6.99191 0.909204 7.12439 1.04168C7.25687 1.17416 7.32311 1.33185 7.32311 1.51475C7.32311 1.69765 7.25687 1.85534 7.12439 1.98782L2.11284 6.99937Z" fill="#333236"/>
</svg>
