<svg width="8" height="14" viewBox="0 0 8 14" fill="none" xmlns="http://www.w3.org/2000/svg">
<path d="M5.88716 7.00063L0.865359 1.97883C0.732881 1.84636 0.668348 1.68867 0.671759 1.50577C0.675182 1.32286 0.743131 1.16517 0.875609 1.0327C1.00809 0.900224 1.16578 0.833984 1.34868 0.833984C1.53158 0.833984 1.68926 0.900224 1.82174 1.0327L6.92559 6.1468C7.0461 6.26731 7.13542 6.40235 7.19354 6.55192C7.25165 6.7015 7.28071 6.85107 7.28071 7.00063C7.28071 7.1502 7.25165 7.29977 7.19354 7.44935C7.13542 7.59892 7.0461 7.73396 6.92559 7.85447L1.81149 12.9686C1.67901 13.101 1.52303 13.1656 1.34354 13.1622C1.16406 13.1587 1.00809 13.0908 0.875609 12.9583C0.743131 12.8258 0.676892 12.6682 0.676892 12.4853C0.676892 12.3024 0.743131 12.1447 0.875609 12.0122L5.88716 7.00063Z" fill="#333236"/>
</svg>
